#!OML:ASF H:\IndianDance\Patient Classification 1\Patient 1\Session 1\dancer.ASF
:FULLY-SPECIFIED
:DEGREES
2506
root -6.83776 15.0468 -7.52315 -174.92 -4.77173 -178.227
lowerback 1.91022 1.62417 -2.37359
upperback -6.14562 1.54766 -2.17748
thorax -7.50027 0.678077 -1.06345
lowerneck -12.5521 -8.6743 -8.80022
upperneck 14.9825 -13.6294 14.3976
head 8.34648 -6.11406 4.56686
rclavicle -2.47487e-014 1.11319e-014
rhumerus 23.4087 56.9098 -18.1783
rradius 102.12
rwrist -39.0034
rhand -35.43 -5.70777
rfingers 7.12502
rthumb -8.55971 -35.5143
lclavicle -2.47487e-014 1.11319e-014
lhumerus 31.4779 -46.9972 -6.18225
lradius 105.491
lwrist 32.3962
lhand -18.1788 391.002
lfingers 7.12502
lthumb 8.09776 60.8268
rfemur -215.081 205.984 207.198
rtibia 65.0526
rfoot -9.92785 -357.482
rtoes -8.26728
lfemur -33.1164 34.209 -17.2282
ltibia 60.8587
lfoot -8.27696 -11.4743
ltoes -23.4033
2507
root -6.80912 15.0613 -7.52081 -174.923 -4.76054 -178.291
lowerback 1.89895 1.59758 -2.50175
upperback -6.1417 1.50271 -2.18284
thorax -7.49377 0.662507 -0.993295
lowerneck -12.2911 -8.84601 -8.9657
upperneck 14.787 -13.8794 14.5827
head 8.29332 -6.24936 4.62728
rclavicle -1.82882e-014 -7.15625e-015
rhumerus 23.3067 57.2914 -17.8766
rradius 102.652
rwrist -37.0983
rhand -35.8141 -3.32146
rfingers 7.12502
rthumb -8.93043 -33.1125
lclavicle -1.82882e-014 -7.15625e-015
lhumerus 31.2039 -47.7167 -6.73079
lradius 106.447
lwrist 30.2393
lhand -18.97 388.16
lfingers 7.12502
lthumb 7.33407 58.013
rfemur -214.748 205.71 207.248
rtibia 64.549
rfoot -10.2662 -357.772
rtoes -8.13724
lfemur -32.9089 34.1327 -17.1808
ltibia 60.486
lfoot -7.9557 -11.4395
ltoes -21.1093
2508
root -6.77969 15.0748 -7.51918 -174.917 -4.77505 -178.363
lowerback 1.87472 1.56168 -2.64082
upperback -6.14189 1.44382 -2.19151
thorax -7.48421 0.640152 -0.919041
lowerneck -12.0352 -9.0085 -9.10841
upperneck 14.6007 -14.1197 14.7527
head 8.24105 -6.37995 4.68041
rclavicle -1.13307e-014 -9.54166e-015
rhumerus 23.1439 57.6352 -17.6409
rradius 103.132
rwrist -35.1154
rhand -36.1967 -0.810977
rfingers 7.12502
rthumb -9.29958 -30.5859
lclavicle -1.13307e-014 -9.54166e-015
lhumerus 30.9254 -48.4087 -7.26213
lradius 107.334
lwrist 28.2107
lhand -19.8288 385.289
lfingers 7.12502
lthumb 6.50513 55.1691
rfemur -214.402 205.463 207.309
rtibia 64.0147
rfoot -10.6576 -358.124
rtoes -7.94951
lfemur -32.7033 34.04 -17.1577
ltibia 60.0956
lfoot -7.67586 -11.3589
ltoes -18.5131
2509
root -6.7498 15.0875 -7.51806 -174.902 -4.81449 -178.444
lowerback 1.83634 1.51788 -2.78065
upperback -6.14513 1.37359 -2.20544
thorax -7.46933 0.61166 -0.848604
lowerneck -11.7875 -9.16359 -9.23741
upperneck 14.426 -14.3512 14.91
head 8.19174 -6.50619 4.72822
rclavicle -1.21259e-014 3.65764e-014
rhumerus 22.9226 57.9417 -17.4689
rradius 103.558
rwrist -33.0708
rhand -36.598 1.81164
rfingers 7.12502
rthumb -9.68683 -27.9456
lclavicle -1.21259e-014 3.65764e-014
lhumerus 30.6293 -49.0625 -7.76128
lradius 108.163
lwrist 26.3234
lhand -20.702 382.335
lfingers 7.12502
lthumb 5.66207 52.2391
rfemur -214.05 205.238 207.383
rtibia 63.4508
rfoot -11.0876 -358.542
rtoes -7.71304
lfemur -32.5022 33.9252 -17.1599
ltibia 59.6877
lfoot -7.47221 -11.2294
ltoes -15.8652
2510
root -6.7197 15.0996 -7.51725 -174.876 -4.87515 -178.53
lowerback 1.78407 1.4682 -2.91277
upperback -6.15117 1.29548 -2.22401
thorax -7.44871 0.5783 -0.786419
lowerneck -11.5426 -9.31337 -9.36062
upperneck 14.2558 -14.5759 15.0615
head 8.14339 -6.62933 4.77424
rclavicle -1.31198e-014 2.94201e-014
rhumerus 22.6455 58.2107 -17.3631
rradius 103.928
rwrist -31.0026
rhand -37.0309 4.56403
rfingers 7.12502
rthumb -10.1045 -25.1734
lclavicle -1.31198e-014 2.94201e-014
lhumerus 30.2962 -49.6713 -8.20345
lradius 108.932
lwrist 24.5812
lhand -21.5547 379.256
lfingers 7.12502
lthumb 4.83877 49.1809
rfemur -213.696 205.03 207.473
rtibia 62.8592
rfoot -11.5489 -359.022
rtoes -7.38745
lfemur -32.31 33.7927 -17.1851
ltibia 59.2652
lfoot -7.37153 -11.0553
ltoes -13.6469
2511
root -6.68963 15.1112 -7.51649 -174.84 -4.95235 -178.618
lowerback 1.71967 1.41374 -3.02832
upperback -6.15945 1.21139 -2.24955
thorax -7.42248 0.540425 -0.740096
lowerneck -11.3123 -9.45785 -9.4705
upperneck 14.1017 -14.7938 15.1973
head 8.10045 -6.74872 4.81345
rclavicle -2.92213e-014 3.81667e-014
rhumerus 22.3107 58.4391 -17.3291
rradius 104.249
rwrist -28.9364
rhand -37.4861 7.45771
rfingers 7.12502
rthumb -10.5436 -22.2578
lclavicle -2.92213e-014 3.81667e-014
lhumerus 29.9171 -50.2331 -8.58447
lradius 109.641
lwrist 22.9719
lhand -22.3812 376.069
lfingers 7.12502
lthumb 4.04064 46.0107
rfemur -213.343 204.831 207.583
rtibia 62.2393
rfoot -12.0325 -359.571
rtoes -7.01217
lfemur -32.1281 33.641 -17.2297
ltibia 58.8318
lfoot -7.36875 -10.8333
ltoes -11.9076
2512
root -6.65983 15.1224 -7.5155 -174.793 -5.03899 -178.704
lowerback 1.64613 1.35678 -3.12372
upperback -6.17091 1.12502 -2.27681
thorax -7.39348 0.499955 -0.706609
lowerneck -11.0963 -9.59737 -9.56845
upperneck 13.9649 -15.0027 15.309
head 8.06208 -6.86348 4.84367
rclavicle -4.70126e-014 4.53229e-014
rhumerus 21.9207 58.625 -17.3661
rradius 104.527
rwrist -26.8907
rhand -37.9339 10.4703
rfingers 7.12502
rthumb -10.9755 -19.2228
lclavicle -4.70126e-014 4.53229e-014
lhumerus 29.4905 -50.752 -8.902
lradius 110.3
lwrist 21.4961
lhand -23.2066 372.857
lfingers 7.12502
lthumb 3.24362 42.8118
rfemur -212.991 204.627 207.711
rtibia 61.5907
rfoot -12.5373 -360.173
rtoes -6.46691
lfemur -31.9607 33.4786 -17.2869
ltibia 58.3942
lfoot -7.45517 -10.5758
ltoes -10.8464
2513
root -6.6303 15.1332 -7.5142 -174.738 -5.12743 -178.789
lowerback 1.56395 1.30188 -3.19844
upperback -6.18464 1.04276 -2.30479
thorax -7.36118 0.460132 -0.685744
lowerneck -10.8958 -9.73593 -9.66896
upperneck 13.8464 -15.2066 15.4027
head 8.03092 -6.97555 4.86852
rclavicle -1.56046e-014 -3.97569e-015
rhumerus 21.4576 58.7601 -17.4842
rradius 104.774
rwrist -24.8595
rhand -38.3232 13.5478
rfingers 7.12502
rthumb -11.351 -16.125
lclavicle -1.56046e-014 -3.97569e-015
lhumerus 29.0289 -51.2332 -9.15544
lradius 110.907
lwrist 20.1573
lhand -24.0799 369.715
lfingers 7.12502
lthumb 2.40019 39.6815
rfemur -212.634 204.404 207.854
rtibia 60.9077
rfoot -13.0713 -360.828
rtoes -5.7423
lfemur -31.8078 33.3056 -17.3515
ltibia 57.9599
lfoot -7.63571 -10.2859
ltoes -10.8782
2514
root -6.60121 15.1435 -7.51239 -174.678 -5.21012 -178.866
lowerback 1.47735 1.25009 -3.24797
upperback -6.20131 0.966296 -2.33177
thorax -7.32878 0.421666 -0.678476
lowerneck -10.7108 -9.86866 -9.75423
upperneck 13.7483 -15.3985 15.4632
head 8.00382 -7.08152 4.8812
rclavicle 1.58034e-014 -1.51076e-014
rhumerus 20.9291 58.8439 -17.6607
rradius 105.023
rwrist -22.8529
rhand -38.6314 16.5975
rfingers 7.12502
rthumb -11.6483 -13.0587
lclavicle 1.58034e-014 -1.51076e-014
lhumerus 28.5317 -51.6885 -9.35358
lradius 111.473
lwrist 18.9579
lhand -25.0315 366.753
lfingers 7.12502
lthumb 1.48117 36.7277
rfemur -212.262 204.151 208.012
rtibia 60.1841
rfoot -13.6469 -361.532
rtoes -4.88072
lfemur -31.6699 33.1301 -17.4123
ltibia 57.5384
lfoot -7.86497 -9.97627
ltoes -11.7181
2515
root -6.57238 15.1528 -7.51006 -174.615 -5.28149 -178.934
lowerback 1.38939 1.20514 -3.27408
upperback -6.22118 0.900822 -2.35359
thorax -7.29862 0.387521 -0.67994
lowerneck -10.5437 -9.99788 -9.83451
upperneck 13.6738 -15.5796 15.49
head 7.98291 -7.18188 4.88295
rclavicle 1.21259e-014 3.49861e-014
rhumerus 20.3323 58.8788 -17.8991
rradius 105.275
rwrist -20.8619
rhand -38.8347 19.5247
rfingers 7.12502
rthumb -11.8442 -10.1203
lclavicle 1.21259e-014 3.49861e-014
lhumerus 28.0112 -52.1254 -9.48965
lradius 111.996
lwrist 17.919
lhand -26.0808 364.07
lfingers 7.12502
lthumb 0.467674 34.049
rfemur -211.864 203.854 208.182
rtibia 59.4107
rfoot -14.2713 -362.278
rtoes -3.86628
lfemur -31.5468 32.9583 -17.4605
ltibia 57.1383
lfoot -8.10216 -9.66299
ltoes -12.9907
